%TF.GenerationSoftware,KiCad,Pcbnew,10.0.2*%
%TF.CreationDate,2026-07-03T11:27:46+09:00*%
%TF.ProjectId,getting-started,67657474-696e-4672-9d73-746172746564,0*%
%TF.SameCoordinates,Original*%
%TF.FileFunction,Legend,Top*%
%TF.FilePolarity,Positive*%
%FSLAX46Y46*%
G04 Gerber Fmt 4.6, Leading zero omitted, Abs format (unit mm)*
G04 Created by KiCad (PCBNEW 10.0.2) date 2026-07-03 11:27:46*
%MOMM*%
%LPD*%
G01*
G04 APERTURE LIST*
%ADD10C,0.150000*%
%ADD11C,0.120000*%
G04 APERTURE END LIST*
D10*
X147483333Y-93174819D02*
X147150000Y-92698628D01*
X146911905Y-93174819D02*
X146911905Y-92174819D01*
X146911905Y-92174819D02*
X147292857Y-92174819D01*
X147292857Y-92174819D02*
X147388095Y-92222438D01*
X147388095Y-92222438D02*
X147435714Y-92270057D01*
X147435714Y-92270057D02*
X147483333Y-92365295D01*
X147483333Y-92365295D02*
X147483333Y-92508152D01*
X147483333Y-92508152D02*
X147435714Y-92603390D01*
X147435714Y-92603390D02*
X147388095Y-92651009D01*
X147388095Y-92651009D02*
X147292857Y-92698628D01*
X147292857Y-92698628D02*
X146911905Y-92698628D01*
X148435714Y-93174819D02*
X147864286Y-93174819D01*
X148150000Y-93174819D02*
X148150000Y-92174819D01*
X148150000Y-92174819D02*
X148054762Y-92317676D01*
X148054762Y-92317676D02*
X147959524Y-92412914D01*
X147959524Y-92412914D02*
X147864286Y-92460533D01*
X129414819Y-89738094D02*
X128414819Y-89738094D01*
X128414819Y-89738094D02*
X128414819Y-89499999D01*
X128414819Y-89499999D02*
X128462438Y-89357142D01*
X128462438Y-89357142D02*
X128557676Y-89261904D01*
X128557676Y-89261904D02*
X128652914Y-89214285D01*
X128652914Y-89214285D02*
X128843390Y-89166666D01*
X128843390Y-89166666D02*
X128986247Y-89166666D01*
X128986247Y-89166666D02*
X129176723Y-89214285D01*
X129176723Y-89214285D02*
X129271961Y-89261904D01*
X129271961Y-89261904D02*
X129367200Y-89357142D01*
X129367200Y-89357142D02*
X129414819Y-89499999D01*
X129414819Y-89499999D02*
X129414819Y-89738094D01*
X129414819Y-88214285D02*
X129414819Y-88785713D01*
X129414819Y-88499999D02*
X128414819Y-88499999D01*
X128414819Y-88499999D02*
X128557676Y-88595237D01*
X128557676Y-88595237D02*
X128652914Y-88690475D01*
X128652914Y-88690475D02*
X128700533Y-88785713D01*
%TO.C,R1*%
D11*
X143030000Y-88280000D02*
X152270000Y-88280000D01*
X152270000Y-91720000D01*
X143030000Y-91720000D01*
X143030000Y-88280000D01*
X142340000Y-90000000D02*
X143030000Y-90000000D01*
X152960000Y-90000000D02*
X152270000Y-90000000D01*
%TO.C,D1*%
X127500000Y-89000000D02*
G75*
G02*
X122500000Y-89000000I-2500000J0D01*
G01*
X122500000Y-89000000D02*
G75*
G02*
X127500000Y-89000000I2500000J0D01*
G01*
X125000000Y-91990000D02*
G75*
G02*
X123455170Y-86440000I0J2990000D01*
G01*
X126544830Y-86440000D02*
G75*
G02*
X125000000Y-91990000I-1544830J-2560000D01*
G01*
X126545000Y-86440000D02*
X123455000Y-86440000D01*
%TD*%
M02*
