%TF.GenerationSoftware,KiCad,Pcbnew,10.0.2*%
%TF.CreationDate,2026-07-03T11:27:46+09:00*%
%TF.ProjectId,getting-started,67657474-696e-4672-9d73-746172746564,0*%
%TF.SameCoordinates,Original*%
%TF.FileFunction,Copper,L2,Bot*%
%TF.FilePolarity,Positive*%
%FSLAX46Y46*%
G04 Gerber Fmt 4.6, Leading zero omitted, Abs format (unit mm)*
G04 Created by KiCad (PCBNEW 10.0.2) date 2026-07-03 11:27:46*
%MOMM*%
%LPD*%
G01*
G04 APERTURE LIST*
%TA.AperFunction,ComponentPad*%
%ADD10C,1.600000*%
%TD*%
%TA.AperFunction,ComponentPad*%
%ADD11C,1.800000*%
%TD*%
%TA.AperFunction,ComponentPad*%
%ADD12R,1.800000X1.800000*%
%TD*%
%TA.AperFunction,SMDPad,CuDef*%
%ADD13R,2.540000X3.510000*%
%TD*%
%TA.AperFunction,ViaPad*%
%ADD14C,0.600000*%
%TD*%
%TA.AperFunction,Conductor*%
%ADD15C,0.400000*%
%TD*%
G04 APERTURE END LIST*
D10*
%TO.P,R1,2*%
%TO.N,/led*%
X141300000Y-90000000D03*
%TO.P,R1,1*%
%TO.N,VCC*%
X154000000Y-90000000D03*
%TD*%
D11*
%TO.P,D1,2,A_2*%
%TO.N,/led*%
X125000000Y-90270000D03*
D12*
%TO.P,D1,1,K_1*%
%TO.N,GND*%
X125000000Y-87730000D03*
%TD*%
D13*
%TO.P,BT1,1,+_1*%
%TO.N,VCC*%
X154155000Y-74823970D03*
%TO.P,BT1,2,-_2*%
%TO.N,GND*%
X124795000Y-74823970D03*
%TD*%
D14*
%TO.N,VCC*%
X154000000Y-83000000D03*
%TD*%
%TO.N,GND*%
D15*
X124795000Y-87525000D02*
X125000000Y-87730000D01*
X124795000Y-74823970D02*
X124795000Y-87525000D01*
%TO.N,VCC*%
X154155000Y-82845000D02*
X154155000Y-74823970D01*
X154000000Y-83000000D02*
X154155000Y-82845000D01*
%TD*%
%TA.AperFunction,Conductor*%
%TO.N,GND*%
G36*
X161442539Y-61520185D02*
G01*
X161488294Y-61572989D01*
X161499500Y-61624500D01*
X161499500Y-96375500D01*
X161479815Y-96442539D01*
X161427011Y-96488294D01*
X161375500Y-96499500D01*
X117624500Y-96499500D01*
X117557461Y-96479815D01*
X117511706Y-96427011D01*
X117500500Y-96375500D01*
X117500500Y-90159778D01*
X123599500Y-90159778D01*
X123599500Y-90380221D01*
X123633985Y-90597952D01*
X123702103Y-90807603D01*
X123702104Y-90807606D01*
X123802187Y-91004025D01*
X123931752Y-91182358D01*
X123931756Y-91182363D01*
X124087636Y-91338243D01*
X124087641Y-91338247D01*
X124243192Y-91451260D01*
X124265978Y-91467815D01*
X124394375Y-91533237D01*
X124462393Y-91567895D01*
X124462396Y-91567896D01*
X124567221Y-91601955D01*
X124672049Y-91636015D01*
X124889778Y-91670500D01*
X124889779Y-91670500D01*
X125110221Y-91670500D01*
X125110222Y-91670500D01*
X125327951Y-91636015D01*
X125537606Y-91567895D01*
X125734022Y-91467815D01*
X125912365Y-91338242D01*
X126068242Y-91182365D01*
X126197815Y-91004022D01*
X126297895Y-90807606D01*
X126366015Y-90597951D01*
X126400500Y-90380222D01*
X126400500Y-90159778D01*
X126366015Y-89942049D01*
X126366014Y-89942045D01*
X126362456Y-89931093D01*
X126351589Y-89897648D01*
X139999500Y-89897648D01*
X139999500Y-90102351D01*
X140031522Y-90304534D01*
X140094781Y-90499223D01*
X140187715Y-90681613D01*
X140308028Y-90847213D01*
X140452786Y-90991971D01*
X140607749Y-91104556D01*
X140618390Y-91112287D01*
X140734607Y-91171503D01*
X140800776Y-91205218D01*
X140800778Y-91205218D01*
X140800781Y-91205220D01*
X140905137Y-91239127D01*
X140995465Y-91268477D01*
X141096557Y-91284488D01*
X141197648Y-91300500D01*
X141197649Y-91300500D01*
X141402351Y-91300500D01*
X141402352Y-91300500D01*
X141604534Y-91268477D01*
X141799219Y-91205220D01*
X141981610Y-91112287D01*
X142074590Y-91044732D01*
X142147213Y-90991971D01*
X142147215Y-90991968D01*
X142147219Y-90991966D01*
X142291966Y-90847219D01*
X142291968Y-90847215D01*
X142291971Y-90847213D01*
X142344732Y-90774590D01*
X142412287Y-90681610D01*
X142505220Y-90499219D01*
X142568477Y-90304534D01*
X142600500Y-90102352D01*
X142600500Y-89897648D01*
X152699500Y-89897648D01*
X152699500Y-90102351D01*
X152731522Y-90304534D01*
X152794781Y-90499223D01*
X152887715Y-90681613D01*
X153008028Y-90847213D01*
X153152786Y-90991971D01*
X153307749Y-91104556D01*
X153318390Y-91112287D01*
X153434607Y-91171503D01*
X153500776Y-91205218D01*
X153500778Y-91205218D01*
X153500781Y-91205220D01*
X153605137Y-91239127D01*
X153695465Y-91268477D01*
X153796557Y-91284488D01*
X153897648Y-91300500D01*
X153897649Y-91300500D01*
X154102351Y-91300500D01*
X154102352Y-91300500D01*
X154304534Y-91268477D01*
X154499219Y-91205220D01*
X154681610Y-91112287D01*
X154774590Y-91044732D01*
X154847213Y-90991971D01*
X154847215Y-90991968D01*
X154847219Y-90991966D01*
X154991966Y-90847219D01*
X154991968Y-90847215D01*
X154991971Y-90847213D01*
X155044732Y-90774590D01*
X155112287Y-90681610D01*
X155205220Y-90499219D01*
X155268477Y-90304534D01*
X155300500Y-90102352D01*
X155300500Y-89897648D01*
X155268477Y-89695466D01*
X155205220Y-89500781D01*
X155205218Y-89500778D01*
X155205218Y-89500776D01*
X155132286Y-89357641D01*
X155112287Y-89318390D01*
X155104066Y-89307075D01*
X154991971Y-89152786D01*
X154847213Y-89008028D01*
X154681613Y-88887715D01*
X154681612Y-88887714D01*
X154681610Y-88887713D01*
X154624653Y-88858691D01*
X154499223Y-88794781D01*
X154304534Y-88731522D01*
X154129995Y-88703878D01*
X154102352Y-88699500D01*
X153897648Y-88699500D01*
X153873329Y-88703351D01*
X153695465Y-88731522D01*
X153500776Y-88794781D01*
X153318386Y-88887715D01*
X153152786Y-89008028D01*
X153008028Y-89152786D01*
X152887715Y-89318386D01*
X152794781Y-89500776D01*
X152731522Y-89695465D01*
X152699500Y-89897648D01*
X142600500Y-89897648D01*
X142568477Y-89695466D01*
X142505220Y-89500781D01*
X142505218Y-89500778D01*
X142505218Y-89500776D01*
X142432286Y-89357641D01*
X142412287Y-89318390D01*
X142404066Y-89307075D01*
X142291971Y-89152786D01*
X142147213Y-89008028D01*
X141981613Y-88887715D01*
X141981612Y-88887714D01*
X141981610Y-88887713D01*
X141924653Y-88858691D01*
X141799223Y-88794781D01*
X141604534Y-88731522D01*
X141429995Y-88703878D01*
X141402352Y-88699500D01*
X141197648Y-88699500D01*
X141173329Y-88703351D01*
X140995465Y-88731522D01*
X140800776Y-88794781D01*
X140618386Y-88887715D01*
X140452786Y-89008028D01*
X140308028Y-89152786D01*
X140187715Y-89318386D01*
X140094781Y-89500776D01*
X140031522Y-89695465D01*
X139999500Y-89897648D01*
X126351589Y-89897648D01*
X126297896Y-89732396D01*
X126297895Y-89732393D01*
X126263237Y-89664375D01*
X126197815Y-89535978D01*
X126172239Y-89500776D01*
X126068247Y-89357641D01*
X126068243Y-89357636D01*
X126017683Y-89307076D01*
X125984198Y-89245753D01*
X125989182Y-89176061D01*
X126031054Y-89120128D01*
X126062031Y-89103213D01*
X126142086Y-89073354D01*
X126142093Y-89073350D01*
X126257187Y-88987190D01*
X126257190Y-88987187D01*
X126343350Y-88872093D01*
X126343354Y-88872086D01*
X126393596Y-88737379D01*
X126393598Y-88737372D01*
X126399999Y-88677844D01*
X126400000Y-88677827D01*
X126400000Y-87980000D01*
X125375278Y-87980000D01*
X125419333Y-87903694D01*
X125450000Y-87789244D01*
X125450000Y-87670756D01*
X125419333Y-87556306D01*
X125375278Y-87480000D01*
X126400000Y-87480000D01*
X126400000Y-86782172D01*
X126399999Y-86782155D01*
X126393598Y-86722627D01*
X126393596Y-86722620D01*
X126343354Y-86587913D01*
X126343350Y-86587906D01*
X126257190Y-86472812D01*
X126257187Y-86472809D01*
X126142093Y-86386649D01*
X126142086Y-86386645D01*
X126007379Y-86336403D01*
X126007372Y-86336401D01*
X125947844Y-86330000D01*
X125250000Y-86330000D01*
X125250000Y-87354722D01*
X125173694Y-87310667D01*
X125059244Y-87280000D01*
X124940756Y-87280000D01*
X124826306Y-87310667D01*
X124750000Y-87354722D01*
X124750000Y-86330000D01*
X124052155Y-86330000D01*
X123992627Y-86336401D01*
X123992620Y-86336403D01*
X123857913Y-86386645D01*
X123857906Y-86386649D01*
X123742812Y-86472809D01*
X123742809Y-86472812D01*
X123656649Y-86587906D01*
X123656645Y-86587913D01*
X123606403Y-86722620D01*
X123606401Y-86722627D01*
X123600000Y-86782155D01*
X123600000Y-87480000D01*
X124624722Y-87480000D01*
X124580667Y-87556306D01*
X124550000Y-87670756D01*
X124550000Y-87789244D01*
X124580667Y-87903694D01*
X124624722Y-87980000D01*
X123600000Y-87980000D01*
X123600000Y-88677844D01*
X123606401Y-88737372D01*
X123606403Y-88737379D01*
X123656645Y-88872086D01*
X123656649Y-88872093D01*
X123742809Y-88987187D01*
X123742812Y-88987190D01*
X123857906Y-89073350D01*
X123857913Y-89073354D01*
X123937968Y-89103213D01*
X123993902Y-89145084D01*
X124018319Y-89210549D01*
X124003467Y-89278822D01*
X123982317Y-89307075D01*
X123931756Y-89357636D01*
X123931752Y-89357641D01*
X123802187Y-89535974D01*
X123702104Y-89732393D01*
X123702103Y-89732396D01*
X123633985Y-89942047D01*
X123599500Y-90159778D01*
X117500500Y-90159778D01*
X117500500Y-76626814D01*
X123025000Y-76626814D01*
X123031401Y-76686342D01*
X123031403Y-76686349D01*
X123081645Y-76821056D01*
X123081649Y-76821063D01*
X123167809Y-76936157D01*
X123167812Y-76936160D01*
X123282906Y-77022320D01*
X123282913Y-77022324D01*
X123417620Y-77072566D01*
X123417627Y-77072568D01*
X123477155Y-77078969D01*
X123477172Y-77078970D01*
X124545000Y-77078970D01*
X125045000Y-77078970D01*
X126112828Y-77078970D01*
X126112844Y-77078969D01*
X126172372Y-77072568D01*
X126172379Y-77072566D01*
X126307086Y-77022324D01*
X126307093Y-77022320D01*
X126422187Y-76936160D01*
X126422190Y-76936157D01*
X126508350Y-76821063D01*
X126508354Y-76821056D01*
X126558596Y-76686349D01*
X126558598Y-76686342D01*
X126564999Y-76626814D01*
X126565000Y-76626797D01*
X126565000Y-75073970D01*
X125045000Y-75073970D01*
X125045000Y-77078970D01*
X124545000Y-77078970D01*
X124545000Y-75073970D01*
X123025000Y-75073970D01*
X123025000Y-76626814D01*
X117500500Y-76626814D01*
X117500500Y-73021125D01*
X123025000Y-73021125D01*
X123025000Y-74573970D01*
X124545000Y-74573970D01*
X125045000Y-74573970D01*
X126565000Y-74573970D01*
X126565000Y-73021134D01*
X126564997Y-73021105D01*
X152384500Y-73021105D01*
X152384500Y-76626840D01*
X152384501Y-76626846D01*
X152390908Y-76686453D01*
X152441202Y-76821298D01*
X152441206Y-76821305D01*
X152527452Y-76936514D01*
X152527455Y-76936517D01*
X152642664Y-77022763D01*
X152642671Y-77022767D01*
X152687618Y-77039531D01*
X152777517Y-77073061D01*
X152837127Y-77079470D01*
X153330500Y-77079469D01*
X153397539Y-77099153D01*
X153443294Y-77151957D01*
X153454500Y-77203469D01*
X153454500Y-82362059D01*
X153434815Y-82429098D01*
X153418181Y-82449740D01*
X153378213Y-82489707D01*
X153378210Y-82489711D01*
X153290609Y-82620814D01*
X153290602Y-82620827D01*
X153230264Y-82766498D01*
X153230261Y-82766510D01*
X153199500Y-82921153D01*
X153199500Y-83078846D01*
X153230261Y-83233489D01*
X153230264Y-83233501D01*
X153290602Y-83379172D01*
X153290609Y-83379185D01*
X153378210Y-83510288D01*
X153378213Y-83510292D01*
X153489707Y-83621786D01*
X153489711Y-83621789D01*
X153620814Y-83709390D01*
X153620827Y-83709397D01*
X153766498Y-83769735D01*
X153766503Y-83769737D01*
X153921153Y-83800499D01*
X153921156Y-83800500D01*
X153921158Y-83800500D01*
X154078844Y-83800500D01*
X154078845Y-83800499D01*
X154233497Y-83769737D01*
X154379179Y-83709394D01*
X154510289Y-83621789D01*
X154621789Y-83510289D01*
X154709394Y-83379179D01*
X154769737Y-83233497D01*
X154783469Y-83164455D01*
X154790525Y-83141199D01*
X154828580Y-83049328D01*
X154855500Y-82913994D01*
X154855500Y-82776006D01*
X154855500Y-77203469D01*
X154875185Y-77136430D01*
X154927989Y-77090675D01*
X154979500Y-77079469D01*
X155472871Y-77079469D01*
X155472872Y-77079469D01*
X155532483Y-77073061D01*
X155667331Y-77022766D01*
X155782546Y-76936516D01*
X155868796Y-76821301D01*
X155919091Y-76686453D01*
X155925500Y-76626843D01*
X155925499Y-73021098D01*
X155919091Y-72961487D01*
X155868884Y-72826876D01*
X155868797Y-72826641D01*
X155868793Y-72826634D01*
X155782547Y-72711425D01*
X155782544Y-72711422D01*
X155667335Y-72625176D01*
X155667328Y-72625172D01*
X155532482Y-72574878D01*
X155532483Y-72574878D01*
X155472883Y-72568471D01*
X155472881Y-72568470D01*
X155472873Y-72568470D01*
X155472864Y-72568470D01*
X152837129Y-72568470D01*
X152837123Y-72568471D01*
X152777516Y-72574878D01*
X152642671Y-72625172D01*
X152642664Y-72625176D01*
X152527455Y-72711422D01*
X152527452Y-72711425D01*
X152441206Y-72826634D01*
X152441202Y-72826641D01*
X152390908Y-72961487D01*
X152384501Y-73021086D01*
X152384501Y-73021093D01*
X152384500Y-73021105D01*
X126564997Y-73021105D01*
X126558598Y-72961597D01*
X126558596Y-72961590D01*
X126508354Y-72826883D01*
X126508350Y-72826876D01*
X126422190Y-72711782D01*
X126422187Y-72711779D01*
X126307093Y-72625619D01*
X126307086Y-72625615D01*
X126172379Y-72575373D01*
X126172372Y-72575371D01*
X126112844Y-72568970D01*
X125045000Y-72568970D01*
X125045000Y-74573970D01*
X124545000Y-74573970D01*
X124545000Y-72568970D01*
X123477155Y-72568970D01*
X123417627Y-72575371D01*
X123417620Y-72575373D01*
X123282913Y-72625615D01*
X123282906Y-72625619D01*
X123167812Y-72711779D01*
X123167809Y-72711782D01*
X123081649Y-72826876D01*
X123081645Y-72826883D01*
X123031403Y-72961590D01*
X123031401Y-72961597D01*
X123025000Y-73021125D01*
X117500500Y-73021125D01*
X117500500Y-61624500D01*
X117520185Y-61557461D01*
X117572989Y-61511706D01*
X117624500Y-61500500D01*
X161375500Y-61500500D01*
X161442539Y-61520185D01*
G37*
%TD.AperFunction*%
%TD*%
M02*
