%TF.GenerationSoftware,KiCad,Pcbnew,10.0.2*%
%TF.CreationDate,2026-07-03T11:27:46+09:00*%
%TF.ProjectId,getting-started,67657474-696e-4672-9d73-746172746564,0*%
%TF.SameCoordinates,Original*%
%TF.FileFunction,Legend,Bot*%
%TF.FilePolarity,Positive*%
%FSLAX46Y46*%
G04 Gerber Fmt 4.6, Leading zero omitted, Abs format (unit mm)*
G04 Created by KiCad (PCBNEW 10.0.2) date 2026-07-03 11:27:46*
%MOMM*%
%LPD*%
G01*
G04 APERTURE LIST*
%ADD10C,0.150000*%
%ADD11C,0.120000*%
G04 APERTURE END LIST*
D10*
X140260714Y-82374979D02*
X140117857Y-82422598D01*
X140117857Y-82422598D02*
X140070238Y-82470217D01*
X140070238Y-82470217D02*
X140022619Y-82565455D01*
X140022619Y-82565455D02*
X140022619Y-82708312D01*
X140022619Y-82708312D02*
X140070238Y-82803550D01*
X140070238Y-82803550D02*
X140117857Y-82851170D01*
X140117857Y-82851170D02*
X140213095Y-82898789D01*
X140213095Y-82898789D02*
X140594047Y-82898789D01*
X140594047Y-82898789D02*
X140594047Y-81898789D01*
X140594047Y-81898789D02*
X140260714Y-81898789D01*
X140260714Y-81898789D02*
X140165476Y-81946408D01*
X140165476Y-81946408D02*
X140117857Y-81994027D01*
X140117857Y-81994027D02*
X140070238Y-82089265D01*
X140070238Y-82089265D02*
X140070238Y-82184503D01*
X140070238Y-82184503D02*
X140117857Y-82279741D01*
X140117857Y-82279741D02*
X140165476Y-82327360D01*
X140165476Y-82327360D02*
X140260714Y-82374979D01*
X140260714Y-82374979D02*
X140594047Y-82374979D01*
X139736904Y-81898789D02*
X139165476Y-81898789D01*
X139451190Y-82898789D02*
X139451190Y-81898789D01*
X138308333Y-82898789D02*
X138879761Y-82898789D01*
X138594047Y-82898789D02*
X138594047Y-81898789D01*
X138594047Y-81898789D02*
X138689285Y-82041646D01*
X138689285Y-82041646D02*
X138784523Y-82136884D01*
X138784523Y-82136884D02*
X138879761Y-82184503D01*
%TO.C,BT1*%
D11*
X153785000Y-71213970D02*
X150167000Y-71213970D01*
X153785000Y-72923970D02*
X153785000Y-71213970D01*
X153785000Y-76723970D02*
X153785000Y-78433970D01*
X150167000Y-78433970D02*
X153785000Y-78433970D01*
X147322300Y-66713970D02*
X131627700Y-66713970D01*
X143335000Y-82933970D02*
X147322300Y-82933970D01*
X141135000Y-80733970D02*
X143335000Y-82933970D01*
X137815000Y-80733970D02*
X141135000Y-80733970D01*
X137815000Y-80733970D02*
X135615000Y-82933970D01*
X131627700Y-82933970D02*
X135615000Y-82933970D01*
X128783000Y-71213970D02*
X125165000Y-71213970D01*
X125165000Y-72923970D02*
X125165000Y-71213970D01*
X125165000Y-76723970D02*
X125165000Y-78433970D01*
X125165000Y-78433970D02*
X128783000Y-78433970D01*
X147320371Y-66712181D02*
G75*
G02*
X150166999Y-71213970I-7845391J-8111799D01*
G01*
X150167000Y-78433970D02*
G75*
G02*
X147320371Y-82935759I-10691995J3609996D01*
G01*
X128783000Y-71213970D02*
G75*
G02*
X131629629Y-66712181I10692000J-3610000D01*
G01*
X131629629Y-82935759D02*
G75*
G02*
X128783000Y-78433970I7845391J8111801D01*
G01*
%TD*%
M02*
