%TF.GenerationSoftware,KiCad,Pcbnew,10.0.2*%
%TF.CreationDate,2026-07-02T14:07:40+09:00*%
%TF.ProjectId,LED,4c45442e-6b69-4636-9164-5f7063625858,0*%
%TF.SameCoordinates,Original*%
%TF.FileFunction,Legend,Top*%
%TF.FilePolarity,Positive*%
%FSLAX46Y46*%
G04 Gerber Fmt 4.6, Leading zero omitted, Abs format (unit mm)*
G04 Created by KiCad (PCBNEW 10.0.2) date 2026-07-02 14:07:40*
%MOMM*%
%LPD*%
G01*
G04 APERTURE LIST*
%ADD10C,0.150000*%
%ADD11C,0.120000*%
G04 APERTURE END LIST*
D10*
X113734819Y-96166666D02*
X113258628Y-96499999D01*
X113734819Y-96738094D02*
X112734819Y-96738094D01*
X112734819Y-96738094D02*
X112734819Y-96357142D01*
X112734819Y-96357142D02*
X112782438Y-96261904D01*
X112782438Y-96261904D02*
X112830057Y-96214285D01*
X112830057Y-96214285D02*
X112925295Y-96166666D01*
X112925295Y-96166666D02*
X113068152Y-96166666D01*
X113068152Y-96166666D02*
X113163390Y-96214285D01*
X113163390Y-96214285D02*
X113211009Y-96261904D01*
X113211009Y-96261904D02*
X113258628Y-96357142D01*
X113258628Y-96357142D02*
X113258628Y-96738094D01*
X113734819Y-95214285D02*
X113734819Y-95785713D01*
X113734819Y-95499999D02*
X112734819Y-95499999D01*
X112734819Y-95499999D02*
X112877676Y-95595237D01*
X112877676Y-95595237D02*
X112972914Y-95690475D01*
X112972914Y-95690475D02*
X113020533Y-95785713D01*
X139991905Y-98494819D02*
X139991905Y-97494819D01*
X139991905Y-97494819D02*
X140230000Y-97494819D01*
X140230000Y-97494819D02*
X140372857Y-97542438D01*
X140372857Y-97542438D02*
X140468095Y-97637676D01*
X140468095Y-97637676D02*
X140515714Y-97732914D01*
X140515714Y-97732914D02*
X140563333Y-97923390D01*
X140563333Y-97923390D02*
X140563333Y-98066247D01*
X140563333Y-98066247D02*
X140515714Y-98256723D01*
X140515714Y-98256723D02*
X140468095Y-98351961D01*
X140468095Y-98351961D02*
X140372857Y-98447200D01*
X140372857Y-98447200D02*
X140230000Y-98494819D01*
X140230000Y-98494819D02*
X139991905Y-98494819D01*
X141515714Y-98494819D02*
X140944286Y-98494819D01*
X141230000Y-98494819D02*
X141230000Y-97494819D01*
X141230000Y-97494819D02*
X141134762Y-97637676D01*
X141134762Y-97637676D02*
X141039524Y-97732914D01*
X141039524Y-97732914D02*
X140944286Y-97780533D01*
%TO.C,R1*%
D11*
X114280000Y-91380000D02*
X117720000Y-91380000D01*
X117720000Y-100620000D01*
X114280000Y-100620000D01*
X114280000Y-91380000D01*
X116000000Y-90690000D02*
X116000000Y-91380000D01*
X116000000Y-101310000D02*
X116000000Y-100620000D01*
%TO.C,D1*%
X138170000Y-100455000D02*
X138170000Y-103545000D01*
X138170000Y-100455170D02*
G75*
G02*
X143720000Y-102000000I2560000J-1544830D01*
G01*
X143720000Y-102000000D02*
G75*
G02*
X138170000Y-103544830I-2990000J0D01*
G01*
X143230000Y-102000000D02*
G75*
G02*
X138230000Y-102000000I-2500000J0D01*
G01*
X138230000Y-102000000D02*
G75*
G02*
X143230000Y-102000000I2500000J0D01*
G01*
%TD*%
M02*
