%TF.GenerationSoftware,KiCad,Pcbnew,10.0.2*%
%TF.CreationDate,2026-07-02T14:07:40+09:00*%
%TF.ProjectId,LED,4c45442e-6b69-4636-9164-5f7063625858,0*%
%TF.SameCoordinates,Original*%
%TF.FileFunction,Copper,L2,Bot*%
%TF.FilePolarity,Positive*%
%FSLAX46Y46*%
G04 Gerber Fmt 4.6, Leading zero omitted, Abs format (unit mm)*
G04 Created by KiCad (PCBNEW 10.0.2) date 2026-07-02 14:07:40*
%MOMM*%
%LPD*%
G01*
G04 APERTURE LIST*
%TA.AperFunction,ComponentPad*%
%ADD10C,1.600000*%
%TD*%
%TA.AperFunction,ComponentPad*%
%ADD11R,1.800000X1.800000*%
%TD*%
%TA.AperFunction,ComponentPad*%
%ADD12C,1.800000*%
%TD*%
%TA.AperFunction,SMDPad,CuDef*%
%ADD13R,2.540000X3.510000*%
%TD*%
%TA.AperFunction,ViaPad*%
%ADD14C,0.600000*%
%TD*%
%TA.AperFunction,Conductor*%
%ADD15C,0.200000*%
%TD*%
G04 APERTURE END LIST*
D10*
%TO.P,R1,2*%
%TO.N,GND*%
X116000000Y-89650000D03*
%TO.P,R1,1*%
%TO.N,/ex.led*%
X116000000Y-102350000D03*
%TD*%
D11*
%TO.P,D1,1,K_1*%
%TO.N,/ex.led*%
X139460000Y-102000000D03*
D12*
%TO.P,D1,2,A_2*%
%TO.N,VCC*%
X142000000Y-102000000D03*
%TD*%
D13*
%TO.P,BT1,1,+_1*%
%TO.N,VCC*%
X144680000Y-83000000D03*
%TO.P,BT1,2,-_2*%
%TO.N,GND*%
X115320000Y-83000000D03*
%TD*%
D14*
%TO.N,VCC*%
X144000000Y-93000000D03*
%TD*%
%TO.N,GND*%
D15*
X115320000Y-88970000D02*
X116000000Y-89650000D01*
X115320000Y-83000000D02*
X115320000Y-88970000D01*
%TO.N,VCC*%
X144680000Y-92320000D02*
X144000000Y-93000000D01*
X144680000Y-83000000D02*
X144680000Y-92320000D01*
%TD*%
%TA.AperFunction,Conductor*%
%TO.N,GND*%
G36*
X151442539Y-70520185D02*
G01*
X151488294Y-70572989D01*
X151499500Y-70624500D01*
X151499500Y-105375500D01*
X151479815Y-105442539D01*
X151427011Y-105488294D01*
X151375500Y-105499500D01*
X110624500Y-105499500D01*
X110557461Y-105479815D01*
X110511706Y-105427011D01*
X110500500Y-105375500D01*
X110500500Y-102247648D01*
X114699500Y-102247648D01*
X114699500Y-102452351D01*
X114731522Y-102654534D01*
X114794781Y-102849223D01*
X114887715Y-103031613D01*
X115008028Y-103197213D01*
X115152786Y-103341971D01*
X115307749Y-103454556D01*
X115318390Y-103462287D01*
X115434607Y-103521503D01*
X115500776Y-103555218D01*
X115500778Y-103555218D01*
X115500781Y-103555220D01*
X115605137Y-103589127D01*
X115695465Y-103618477D01*
X115796557Y-103634488D01*
X115897648Y-103650500D01*
X115897649Y-103650500D01*
X116102351Y-103650500D01*
X116102352Y-103650500D01*
X116304534Y-103618477D01*
X116499219Y-103555220D01*
X116681610Y-103462287D01*
X116775475Y-103394091D01*
X116847213Y-103341971D01*
X116847215Y-103341968D01*
X116847219Y-103341966D01*
X116991966Y-103197219D01*
X116991968Y-103197215D01*
X116991971Y-103197213D01*
X117044732Y-103124590D01*
X117112287Y-103031610D01*
X117205220Y-102849219D01*
X117268477Y-102654534D01*
X117300500Y-102452352D01*
X117300500Y-102247648D01*
X117268477Y-102045466D01*
X117205220Y-101850781D01*
X117205218Y-101850778D01*
X117205218Y-101850776D01*
X117171503Y-101784607D01*
X117112287Y-101668390D01*
X117104556Y-101657749D01*
X116991971Y-101502786D01*
X116847213Y-101358028D01*
X116681613Y-101237715D01*
X116681612Y-101237714D01*
X116681610Y-101237713D01*
X116579558Y-101185715D01*
X116527699Y-101159291D01*
X116527697Y-101159289D01*
X116499226Y-101144782D01*
X116304534Y-101081522D01*
X116118989Y-101052135D01*
X138059500Y-101052135D01*
X138059500Y-102947870D01*
X138059501Y-102947876D01*
X138065908Y-103007483D01*
X138116202Y-103142328D01*
X138116206Y-103142335D01*
X138202452Y-103257544D01*
X138202455Y-103257547D01*
X138317664Y-103343793D01*
X138317671Y-103343797D01*
X138452517Y-103394091D01*
X138452516Y-103394091D01*
X138459444Y-103394835D01*
X138512127Y-103400500D01*
X140407872Y-103400499D01*
X140467483Y-103394091D01*
X140602331Y-103343796D01*
X140717546Y-103257546D01*
X140803796Y-103142331D01*
X140831429Y-103068243D01*
X140833601Y-103062420D01*
X140875471Y-103006486D01*
X140940936Y-102982068D01*
X141009209Y-102996919D01*
X141037464Y-103018071D01*
X141087636Y-103068243D01*
X141087641Y-103068247D01*
X141189603Y-103142326D01*
X141265978Y-103197815D01*
X141394375Y-103263237D01*
X141462393Y-103297895D01*
X141462396Y-103297896D01*
X141567221Y-103331955D01*
X141672049Y-103366015D01*
X141889778Y-103400500D01*
X141889779Y-103400500D01*
X142110221Y-103400500D01*
X142110222Y-103400500D01*
X142327951Y-103366015D01*
X142537606Y-103297895D01*
X142734022Y-103197815D01*
X142912365Y-103068242D01*
X143068242Y-102912365D01*
X143197815Y-102734022D01*
X143297895Y-102537606D01*
X143366015Y-102327951D01*
X143400500Y-102110222D01*
X143400500Y-101889778D01*
X143366015Y-101672049D01*
X143311019Y-101502786D01*
X143297896Y-101462396D01*
X143297895Y-101462393D01*
X143244717Y-101358028D01*
X143197815Y-101265978D01*
X143120303Y-101159291D01*
X143068247Y-101087641D01*
X143068243Y-101087636D01*
X142912363Y-100931756D01*
X142912358Y-100931752D01*
X142734025Y-100802187D01*
X142734024Y-100802186D01*
X142734022Y-100802185D01*
X142616791Y-100742452D01*
X142537606Y-100702104D01*
X142537603Y-100702103D01*
X142327952Y-100633985D01*
X142219086Y-100616742D01*
X142110222Y-100599500D01*
X141889778Y-100599500D01*
X141817201Y-100610995D01*
X141672047Y-100633985D01*
X141462396Y-100702103D01*
X141462393Y-100702104D01*
X141265974Y-100802187D01*
X141087641Y-100931752D01*
X141087636Y-100931756D01*
X141037463Y-100981929D01*
X140976140Y-101015413D01*
X140906448Y-101010428D01*
X140850515Y-100968557D01*
X140833601Y-100937580D01*
X140803797Y-100857671D01*
X140803793Y-100857664D01*
X140717547Y-100742455D01*
X140717544Y-100742452D01*
X140602335Y-100656206D01*
X140602328Y-100656202D01*
X140467482Y-100605908D01*
X140467483Y-100605908D01*
X140407883Y-100599501D01*
X140407881Y-100599500D01*
X140407873Y-100599500D01*
X140407864Y-100599500D01*
X138512129Y-100599500D01*
X138512123Y-100599501D01*
X138452516Y-100605908D01*
X138317671Y-100656202D01*
X138317664Y-100656206D01*
X138202455Y-100742452D01*
X138202452Y-100742455D01*
X138116206Y-100857664D01*
X138116202Y-100857671D01*
X138065908Y-100992517D01*
X138059501Y-101052116D01*
X138059500Y-101052135D01*
X116118989Y-101052135D01*
X116118938Y-101052127D01*
X116102352Y-101049500D01*
X115897648Y-101049500D01*
X115881062Y-101052127D01*
X115695465Y-101081522D01*
X115500776Y-101144781D01*
X115318386Y-101237715D01*
X115152786Y-101358028D01*
X115008028Y-101502786D01*
X114887715Y-101668386D01*
X114794781Y-101850776D01*
X114731522Y-102045465D01*
X114699500Y-102247648D01*
X110500500Y-102247648D01*
X110500500Y-89547682D01*
X114700000Y-89547682D01*
X114700000Y-89752317D01*
X114732009Y-89954417D01*
X114795244Y-90149031D01*
X114888141Y-90331350D01*
X114888147Y-90331359D01*
X114920523Y-90375921D01*
X114920524Y-90375922D01*
X115600000Y-89696446D01*
X115600000Y-89702661D01*
X115627259Y-89804394D01*
X115679920Y-89895606D01*
X115754394Y-89970080D01*
X115845606Y-90022741D01*
X115947339Y-90050000D01*
X115953553Y-90050000D01*
X115274076Y-90729474D01*
X115318650Y-90761859D01*
X115500968Y-90854755D01*
X115695582Y-90917990D01*
X115897683Y-90950000D01*
X116102317Y-90950000D01*
X116304417Y-90917990D01*
X116499031Y-90854755D01*
X116681349Y-90761859D01*
X116725921Y-90729474D01*
X116046447Y-90050000D01*
X116052661Y-90050000D01*
X116154394Y-90022741D01*
X116245606Y-89970080D01*
X116320080Y-89895606D01*
X116372741Y-89804394D01*
X116400000Y-89702661D01*
X116400000Y-89696447D01*
X117079474Y-90375921D01*
X117111859Y-90331349D01*
X117204755Y-90149031D01*
X117267990Y-89954417D01*
X117300000Y-89752317D01*
X117300000Y-89547682D01*
X117267990Y-89345582D01*
X117204755Y-89150968D01*
X117111859Y-88968650D01*
X117079474Y-88924077D01*
X117079474Y-88924076D01*
X116400000Y-89603551D01*
X116400000Y-89597339D01*
X116372741Y-89495606D01*
X116320080Y-89404394D01*
X116245606Y-89329920D01*
X116154394Y-89277259D01*
X116052661Y-89250000D01*
X116046446Y-89250000D01*
X116725922Y-88570524D01*
X116725921Y-88570523D01*
X116681359Y-88538147D01*
X116681350Y-88538141D01*
X116499031Y-88445244D01*
X116304417Y-88382009D01*
X116102317Y-88350000D01*
X115897683Y-88350000D01*
X115695582Y-88382009D01*
X115500968Y-88445244D01*
X115318644Y-88538143D01*
X115274077Y-88570523D01*
X115274077Y-88570524D01*
X115953554Y-89250000D01*
X115947339Y-89250000D01*
X115845606Y-89277259D01*
X115754394Y-89329920D01*
X115679920Y-89404394D01*
X115627259Y-89495606D01*
X115600000Y-89597339D01*
X115600000Y-89603553D01*
X114920524Y-88924077D01*
X114920523Y-88924077D01*
X114888143Y-88968644D01*
X114795244Y-89150968D01*
X114732009Y-89345582D01*
X114700000Y-89547682D01*
X110500500Y-89547682D01*
X110500500Y-84802844D01*
X113550000Y-84802844D01*
X113556401Y-84862372D01*
X113556403Y-84862379D01*
X113606645Y-84997086D01*
X113606649Y-84997093D01*
X113692809Y-85112187D01*
X113692812Y-85112190D01*
X113807906Y-85198350D01*
X113807913Y-85198354D01*
X113942620Y-85248596D01*
X113942627Y-85248598D01*
X114002155Y-85254999D01*
X114002172Y-85255000D01*
X115070000Y-85255000D01*
X115570000Y-85255000D01*
X116637828Y-85255000D01*
X116637844Y-85254999D01*
X116697372Y-85248598D01*
X116697379Y-85248596D01*
X116832086Y-85198354D01*
X116832093Y-85198350D01*
X116947187Y-85112190D01*
X116947190Y-85112187D01*
X117033350Y-84997093D01*
X117033354Y-84997086D01*
X117083596Y-84862379D01*
X117083598Y-84862372D01*
X117089999Y-84802844D01*
X117090000Y-84802827D01*
X117090000Y-83250000D01*
X115570000Y-83250000D01*
X115570000Y-85255000D01*
X115070000Y-85255000D01*
X115070000Y-83250000D01*
X113550000Y-83250000D01*
X113550000Y-84802844D01*
X110500500Y-84802844D01*
X110500500Y-81197155D01*
X113550000Y-81197155D01*
X113550000Y-82750000D01*
X115070000Y-82750000D01*
X115570000Y-82750000D01*
X117090000Y-82750000D01*
X117090000Y-81197164D01*
X117089997Y-81197135D01*
X142909500Y-81197135D01*
X142909500Y-84802870D01*
X142909501Y-84802876D01*
X142915908Y-84862483D01*
X142966202Y-84997328D01*
X142966206Y-84997335D01*
X143052452Y-85112544D01*
X143052455Y-85112547D01*
X143167664Y-85198793D01*
X143167671Y-85198797D01*
X143212618Y-85215561D01*
X143302517Y-85249091D01*
X143362127Y-85255500D01*
X143955500Y-85255499D01*
X144022539Y-85275183D01*
X144068294Y-85327987D01*
X144079500Y-85379499D01*
X144079500Y-92019903D01*
X144070855Y-92049340D01*
X144064332Y-92079331D01*
X144060577Y-92084346D01*
X144059815Y-92086942D01*
X144043180Y-92107585D01*
X143985338Y-92165426D01*
X143924015Y-92198910D01*
X143921850Y-92199361D01*
X143766508Y-92230261D01*
X143766498Y-92230264D01*
X143620827Y-92290602D01*
X143620814Y-92290609D01*
X143489711Y-92378210D01*
X143489707Y-92378213D01*
X143378213Y-92489707D01*
X143378210Y-92489711D01*
X143290609Y-92620814D01*
X143290602Y-92620827D01*
X143230264Y-92766498D01*
X143230261Y-92766510D01*
X143199500Y-92921153D01*
X143199500Y-93078846D01*
X143230261Y-93233489D01*
X143230264Y-93233501D01*
X143290602Y-93379172D01*
X143290609Y-93379185D01*
X143378210Y-93510288D01*
X143378213Y-93510292D01*
X143489707Y-93621786D01*
X143489711Y-93621789D01*
X143620814Y-93709390D01*
X143620827Y-93709397D01*
X143766498Y-93769735D01*
X143766503Y-93769737D01*
X143921153Y-93800499D01*
X143921156Y-93800500D01*
X143921158Y-93800500D01*
X144078844Y-93800500D01*
X144078845Y-93800499D01*
X144233497Y-93769737D01*
X144379179Y-93709394D01*
X144510289Y-93621789D01*
X144621789Y-93510289D01*
X144709394Y-93379179D01*
X144769737Y-93233497D01*
X144789113Y-93136085D01*
X144800638Y-93078150D01*
X144833023Y-93016239D01*
X144834526Y-93014708D01*
X145038506Y-92810727D01*
X145038511Y-92810724D01*
X145048714Y-92800520D01*
X145048716Y-92800520D01*
X145160520Y-92688716D01*
X145164519Y-92681787D01*
X145220209Y-92585332D01*
X145220210Y-92585329D01*
X145239576Y-92551787D01*
X145239577Y-92551785D01*
X145280500Y-92399058D01*
X145280500Y-92240943D01*
X145280500Y-85379499D01*
X145300185Y-85312460D01*
X145352989Y-85266705D01*
X145404500Y-85255499D01*
X145997871Y-85255499D01*
X145997872Y-85255499D01*
X146057483Y-85249091D01*
X146192331Y-85198796D01*
X146307546Y-85112546D01*
X146393796Y-84997331D01*
X146444091Y-84862483D01*
X146450500Y-84802873D01*
X146450499Y-81197128D01*
X146444091Y-81137517D01*
X146393884Y-81002906D01*
X146393797Y-81002671D01*
X146393793Y-81002664D01*
X146307547Y-80887455D01*
X146307544Y-80887452D01*
X146192335Y-80801206D01*
X146192328Y-80801202D01*
X146057482Y-80750908D01*
X146057483Y-80750908D01*
X145997883Y-80744501D01*
X145997881Y-80744500D01*
X145997873Y-80744500D01*
X145997864Y-80744500D01*
X143362129Y-80744500D01*
X143362123Y-80744501D01*
X143302516Y-80750908D01*
X143167671Y-80801202D01*
X143167664Y-80801206D01*
X143052455Y-80887452D01*
X143052452Y-80887455D01*
X142966206Y-81002664D01*
X142966202Y-81002671D01*
X142915908Y-81137517D01*
X142909501Y-81197116D01*
X142909501Y-81197123D01*
X142909500Y-81197135D01*
X117089997Y-81197135D01*
X117083598Y-81137627D01*
X117083596Y-81137620D01*
X117033354Y-81002913D01*
X117033350Y-81002906D01*
X116947190Y-80887812D01*
X116947187Y-80887809D01*
X116832093Y-80801649D01*
X116832086Y-80801645D01*
X116697379Y-80751403D01*
X116697372Y-80751401D01*
X116637844Y-80745000D01*
X115570000Y-80745000D01*
X115570000Y-82750000D01*
X115070000Y-82750000D01*
X115070000Y-80745000D01*
X114002155Y-80745000D01*
X113942627Y-80751401D01*
X113942620Y-80751403D01*
X113807913Y-80801645D01*
X113807906Y-80801649D01*
X113692812Y-80887809D01*
X113692809Y-80887812D01*
X113606649Y-81002906D01*
X113606645Y-81002913D01*
X113556403Y-81137620D01*
X113556401Y-81137627D01*
X113550000Y-81197155D01*
X110500500Y-81197155D01*
X110500500Y-70624500D01*
X110520185Y-70557461D01*
X110572989Y-70511706D01*
X110624500Y-70500500D01*
X151375500Y-70500500D01*
X151442539Y-70520185D01*
G37*
%TD.AperFunction*%
%TD*%
M02*
