M48
; DRILL file KiCad 10.0.4 date 2026-07-03T18:37:01
; FORMAT={-:-/ absolute / metric / decimal}
; #@! TF.CreationDate,2026-07-03T18:37:01+09:00
; #@! TF.GenerationSoftware,Kicad,Pcbnew,10.0.4
; #@! TF.FileFunction,Plated,1,2,PTH
FMAT,2
METRIC
; #@! TA.AperFunction,Plated,PTH,ViaDrill
T1C0.300
; #@! TA.AperFunction,Plated,PTH,ComponentDrill
T2C0.800
; #@! TA.AperFunction,Plated,PTH,ComponentDrill
T3C1.000
; #@! TA.AperFunction,Plated,PTH,ComponentDrill
T4C1.100
; #@! TA.AperFunction,Plated,PTH,ComponentDrill
T5C1.300
%
G90
G05
T1
X141.01Y-107.9
X143.71Y-100.18
X146.517Y-95.873
X146.81Y-114.78
X148.81Y-87.28
X150.408Y-95.778
X155.31Y-91.68
T2
X132.06Y-85.78
X132.06Y-89.28
X160.01Y-85.03
X160.01Y-87.53
T3
X139.0Y-93.36
X140.27Y-88.28
X141.54Y-93.36
X142.81Y-88.28
X144.08Y-93.36
X145.35Y-88.28
X146.62Y-93.36
X147.89Y-88.28
X149.16Y-93.36
X150.43Y-88.28
X151.7Y-93.36
X152.97Y-88.28
X154.24Y-93.36
X155.51Y-88.28
X156.78Y-93.36
X163.81Y-93.53
X163.81Y-96.07
X163.81Y-98.61
X163.81Y-101.15
X163.81Y-103.69
X163.81Y-106.23
T4
X127.96Y-103.9
X127.96Y-114.06
X132.21Y-103.9
X132.21Y-114.06
X136.46Y-103.9
X136.46Y-114.06
X140.71Y-103.9
X140.71Y-114.06
X144.96Y-103.9
X144.96Y-114.06
X149.21Y-103.9
X149.21Y-114.06
X153.46Y-103.9
X153.46Y-114.06
X157.71Y-103.9
X157.71Y-114.06
T5
X115.61Y-87.78
X118.41Y-99.03
X118.41Y-104.03
X118.41Y-110.03
X118.41Y-115.03
X120.61Y-87.78
M30
